<svg width="32" height="32" viewBox="0 0 32 32" fill="none" xmlns="http://www.w3.org/2000/svg">
<g id="about" clip-path="url(#clip0_139_2)">
<circle id="Out " cx="16" cy="16" r="15" stroke="white" stroke-width="2"/>
<circle id="AboutUp" cx="15.5" cy="8.5" r="2" fill="white" stroke="white"/>
<g id="AboutDown">
<mask id="path-3-inside-1_139_2" fill="white">
<path d="M15 12L12.5 14V14.5L13 15L14 14.5L14.5 15V24L15.5 25H17L20 22.5L19 22L18 22.5L17.5 21.5V13L16.5 12H15Z"/>
</mask>
<path d="M12.5 14L6.87774 6.97218L3.5 9.67438V14H12.5ZM15 12V3H11.843L9.37774 4.97218L15 12ZM16.5 12L22.864 5.63604L20.2279 3H16.5V12ZM17.5 13H26.5V9.27208L23.864 6.63604L17.5 13ZM17.5 21.5H8.5V23.6246L9.45016 25.5249L17.5 21.5ZM18 22.5L9.95016 26.5249L13.9751 34.5748L22.0249 30.5498L18 22.5ZM19 22L23.0249 13.9502L19 11.9377L14.9751 13.9502L19 22ZM20 22.5L25.7617 29.414L36.3333 20.6043L24.0249 14.4502L20 22.5ZM17 25V34H20.2584L22.7617 31.914L17 25ZM15.5 25L9.13604 31.364L11.7721 34H15.5V25ZM14.5 24H5.5V27.7279L8.13604 30.364L14.5 24ZM14.5 15H23.5V11.2721L20.864 8.63604L14.5 15ZM14 14.5L20.364 8.13604L15.7771 3.54916L9.97508 6.45016L14 14.5ZM13 15L6.63604 21.364L11.2229 25.9508L17.0249 23.0498L13 15ZM12.5 14.5H3.5V18.2279L6.13604 20.864L12.5 14.5ZM18.1223 21.0278L20.6223 19.0278L9.37774 4.97218L6.87774 6.97218L18.1223 21.0278ZM15 21H16.5V3H15V21ZM10.136 18.364L11.136 19.364L23.864 6.63604L22.864 5.63604L10.136 18.364ZM8.5 13V21.5H26.5V13H8.5ZM9.45016 25.5249L9.95016 26.5249L26.0498 18.4751L25.5498 17.4751L9.45016 25.5249ZM22.0249 30.5498L23.0249 30.0498L14.9751 13.9502L13.9751 14.4502L22.0249 30.5498ZM14.9751 30.0498L15.9751 30.5498L24.0249 14.4502L23.0249 13.9502L14.9751 30.0498ZM14.2383 15.586L11.2383 18.086L22.7617 31.914L25.7617 29.414L14.2383 15.586ZM17 16H15.5V34H17V16ZM21.864 18.636L20.864 17.636L8.13604 30.364L9.13604 31.364L21.864 18.636ZM23.5 24V15H5.5V24H23.5ZM20.864 8.63604L20.364 8.13604L7.63604 20.864L8.13604 21.364L20.864 8.63604ZM9.97508 6.45016L8.97508 6.95016L17.0249 23.0498L18.0249 22.5498L9.97508 6.45016ZM19.364 8.63604L18.864 8.13604L6.13604 20.864L6.63604 21.364L19.364 8.63604ZM21.5 14.5V14H3.5V14.5H21.5Z" fill="white" mask="url(#path-3-inside-1_139_2)"/>
</g>
</g>
<defs>
<clipPath id="clip0_139_2">
<rect width="32" height="32" fill="white"/>
</clipPath>
</defs>
</svg>
