<svg width="137" height="114" viewBox="0 0 137 114" fill="none" xmlns="http://www.w3.org/2000/svg">
<g id="Settings ">
<path id="Outsidegear" d="M25.5 44.5H34.5L37.5 36.5L40 32L39 30.5L34 25.5L35.5 23.5L42.5 16L44.5 16.5L50 22L52 21L62.5 16.5L63.5 14V7.5H70H77V16L79.5 17L90.5 22L92 20L95.5 16.5H97.5L106 24.5V26L100.5 31L101 33L103 36.5L105.5 44H108H114L115.5 45.5V56L114 58.5H111.5H106.5L105 61L103 66L101 70.5V72.5L103 75L106 78L105 80.5L101 85L97 87.5L94.5 85.5L89.5 81.5L87 83L84 84.5L80.5 86L77.5 86.5V89V94L75.5 97H70H65L63 95.5L62.5 92.5V88L58 86L53.5 84L49.5 82L46.5 84.5L44 87L42 86.5L35.5 80L34 77.5L35.5 75.5L39.5 71L38.5 68.5L37.5 66L36.5 63.5L35.5 60.5L34.5 58.5H25.5V57.5V44.5Z" fill="#808080" stroke="black" stroke-width="6"/>
<path id="Insidegear" d="M86.5 42L82.5 37.5L77.5 34.5L72.5 32.5L66 33L59.5 36L54.5 41L52 46.5L51.5 53L53 60L58 66.5L66 70.5H73L79.5 68L84 64.5L88 59L89 53V51" stroke="black" stroke-width="6" stroke-linecap="round" stroke-linejoin="round"/>
<circle id="Circleinsidegear" cx="70.5" cy="51.5" r="16.5" fill="#4093E0"/>
</g>
</svg>
